<svg width="22" height="22" viewBox="0 0 22 22" fill="none" xmlns="http://www.w3.org/2000/svg">
<g clip-path="url(#clip0_213_8202)">
<path d="M18.0202 3.65712C15.6002 2.00712 12.6119 2.77712 10.9986 4.66546C9.38523 2.77712 6.3969 1.99796 3.9769 3.65712C2.69357 4.53712 1.8869 6.02212 1.8319 7.58962C1.70357 11.1463 4.8569 13.9971 9.6694 18.3696L9.76107 18.4521C10.4577 19.0846 11.5302 19.0846 12.2269 18.443L12.3277 18.3513C17.1402 13.988 20.2844 11.1371 20.1652 7.58046C20.1102 6.02212 19.3036 4.53712 18.0202 3.65712ZM11.0902 17.0038L10.9986 17.0955L10.9069 17.0038C6.54357 13.053 3.66523 10.4405 3.66523 7.79129C3.66523 5.95796 5.04023 4.58296 6.87357 4.58296C8.28523 4.58296 9.66023 5.49046 10.1461 6.74629H11.8602C12.3369 5.49046 13.7119 4.58296 15.1236 4.58296C16.9569 4.58296 18.3319 5.95796 18.3319 7.79129C18.3319 10.4405 15.4536 13.053 11.0902 17.0038Z" fill="#2E2E2E"/>
</g>
<defs>
<clipPath id="clip0_213_8202">
<rect width="22" height="22" fill="white"/>
</clipPath>
</defs>
</svg>
