<svg width="21" height="14" viewBox="0 0 21 14" fill="none" xmlns="http://www.w3.org/2000/svg">
<path d="M1.16667 14H19.8333C20.475 14 21 13.475 21 12.8333C21 12.1917 20.475 11.6667 19.8333 11.6667H1.16667C0.525 11.6667 0 12.1917 0 12.8333C0 13.475 0.525 14 1.16667 14ZM1.16667 8.16667H19.8333C20.475 8.16667 21 7.64167 21 7C21 6.35833 20.475 5.83333 19.8333 5.83333H1.16667C0.525 5.83333 0 6.35833 0 7C0 7.64167 0.525 8.16667 1.16667 8.16667ZM0 1.16667C0 1.80833 0.525 2.33333 1.16667 2.33333H19.8333C20.475 2.33333 21 1.80833 21 1.16667C21 0.525 20.475 0 19.8333 0H1.16667C0.525 0 0 0.525 0 1.16667Z" fill="#323232"/>
</svg>
