<svg height="100%" width="100%" version="1.1" id="Layer_1" xmlns="http://www.w3.org/2000/svg" xmlns:xlink="http://www.w3.org/1999/xlink" x="0px" y="0px"
	 viewBox="0 0 466.7 149.9" style="enable-background:new 0 0 466.7 149.9;" xml:space="preserve">
<path d="M86.6,2.2H64.3c0,18.3-8.4,35-23,46l-8.8,6.6l34.2,46.6h28.1L63.3,58.5C78.2,43.7,86.6,23.7,86.6,2.2z"/>
<rect x="6.9" y="2.2" width="22.8" height="99.2"/>
<rect x="101.4" y="2.2" width="21.5" height="99.2"/>
<path d="M311.5,30.9c-8.2,0-16,2.5-21.2,9.6v-7.7h-20.4v68.6h20.7v-36c0-10.4,7-15.5,15.4-15.5c9,0,14.2,5.4,14.2,15.4v36.2h20.5
	V57.8C340.7,41.8,328,30.9,311.5,30.9z"/>
<path d="M187.9,32.8v4.4c-5.8-4-12.8-6.3-20.4-6.3c-20,0-36.2,16.2-36.2,36.2s16.2,36.2,36.2,36.2c7.6,0,14.6-2.3,20.4-6.3v4.4h20.5
	V32.8H187.9z M169.2,84.7c-10.3,0-18.6-7.9-18.6-17.6s8.3-17.6,18.6-17.6s18.6,7.9,18.6,17.6S179.5,84.7,169.2,84.7z"/>
<path d="M240.2,41.7v-8.9h-21v68.6h21.1v-32c0-10.8,11.7-16.6,19.8-16.6c0.1,0,0.2,0,0.2,0v-20C252,32.8,244.3,36.4,240.2,41.7z"/>
<path d="M404.5,32.8v4.4c-5.8-4-12.8-6.3-20.4-6.3c-20,0-36.2,16.2-36.2,36.2s16.2,36.2,36.2,36.2c7.6,0,14.6-2.3,20.4-6.3v4.4H425
	V32.8H404.5z M385.8,84.7c-10.3,0-18.6-7.9-18.6-17.6s8.3-17.6,18.6-17.6c10.3,0,18.6,7.9,18.6,17.6
	C404.5,76.8,396.1,84.7,385.8,84.7z"/>
<g>
	<path d="M440.9,34.8c0-1-0.7-1.6-1.8-1.6h-1.9v5.2h0.9v-1.9h1l0.8,1.9h1l-0.9-2.1C440.6,36,440.9,35.5,440.9,34.8z M439.1,35.6h-1
		V34h1c0.6,0,0.9,0.3,0.9,0.8S439.8,35.6,439.1,35.6z"/>
	<path d="M438.8,31c-2.7,0-4.9,2.2-4.9,4.9c0.1,2.7,2.2,4.9,4.9,4.9s4.9-2.2,4.9-4.9S441.5,31,438.8,31z M438.8,39.9
		c-2.2,0-3.9-1.8-3.9-4s1.8-4,3.9-4c2.2,0,3.9,1.8,3.9,4S440.9,39.9,438.8,39.9z"/>
</g>
<path d="M446.9,77.1c-7.1,0-12.9,5.8-12.9,12.9s5.8,12.9,12.9,12.9s12.9-5.8,12.9-12.9C459.8,82.8,454,77.1,446.9,77.1z"/>
<g>
	<path d="M34.9,140.2c0,4.7-3.6,7.5-10.6,7.5H11.1V120h12.4c6.4,0,9.9,2.7,9.9,7.2c0,3-1.5,5.1-3.7,6.2
		C32.8,134.2,34.9,136.6,34.9,140.2z M15,123.2v8.9h8.1c4,0,6.3-1.5,6.3-4.4c0-2.9-2.3-4.4-6.3-4.4H15z M30.9,139.9
		c0-3.2-2.4-4.6-6.8-4.6H15v9.2h9.1C28.5,144.5,30.9,143.1,30.9,139.9z"/>
	<path d="M40.8,135.8V120h4v15.6c0,6.1,2.8,8.9,7.8,8.9s7.8-2.8,7.8-8.9V120h3.8v15.7c0,8-4.4,12.3-11.7,12.3
		C45.2,148,40.8,143.8,40.8,135.8z"/>
	<path d="M82.5,138.1v9.6h-3.9v-9.6l-11-18h4.2l8.9,14.6l8.9-14.6h3.9L82.5,138.1z"/>
	<path d="M131.9,120v27.7h-3.2L112,127.1v20.6h-4V120h3.2l16.6,20.6V120H131.9z"/>
	<path d="M137.9,133.9c0-8.1,6.2-14.2,14.7-14.2c8.4,0,14.7,6,14.7,14.2c0,8.1-6.2,14.2-14.7,14.2C144.2,148,137.9,142,137.9,133.9z
		 M163.4,133.9c0-6.1-4.6-10.6-10.7-10.6c-6.2,0-10.8,4.5-10.8,10.6c0,6.1,4.6,10.6,10.8,10.6C158.8,144.5,163.4,140,163.4,133.9z"
		/>
	<path d="M211.6,120l-9.3,27.7h-4.2l-7.6-22.1l-7.6,22.1h-4.2l-9.3-27.7h4.1l7.5,22.5L189,120h3.6l7.6,22.6l7.6-22.6H211.6z"/>
	<path d="M213.2,145.2c0-1.6,1.2-2.7,2.7-2.7c1.4,0,2.6,1.1,2.6,2.7c0,1.6-1.2,2.7-2.6,2.7C214.5,147.9,213.2,146.8,213.2,145.2z"/>
	<path d="M257.5,129.7c0,6-4.3,9.6-11.5,9.6h-6.8v8.4h-4V120H246C253.2,120,257.5,123.7,257.5,129.7z M253.6,129.7
		c0-4-2.6-6.2-7.7-6.2h-6.7v12.4h6.7C250.9,135.9,253.6,133.6,253.6,129.7z"/>
	<path d="M279.6,140.8h-14.7l-3,6.9h-4.1l12.5-27.7h3.9l12.6,27.7h-4.2L279.6,140.8z M278.2,137.6l-6-13.6l-6,13.6H278.2z"/>
	<path d="M299.8,138.1v9.6h-3.9v-9.6l-11-18h4.2l8.9,14.6l8.9-14.6h3.9L299.8,138.1z"/>
	<path d="M325.4,120h4v24.2h15v3.4h-18.9V120z"/>
	<path d="M366.6,140.8h-14.7l-3,6.9h-4.1l12.5-27.7h3.9l12.6,27.7h-4.2L366.6,140.8z M365.3,137.6l-6-13.6l-6,13.6H365.3z"/>
	<path d="M382.1,123.5h-9.5V120h22.9v3.4H386v24.2h-3.9V123.5z"/>
	<path d="M419.9,144.3v3.4h-20.1V120h19.5v3.4h-15.6v8.5h13.9v3.4h-13.9v8.9H419.9z"/>
	<path d="M444.8,147.7l-6-8.5c-0.6,0-1.1,0.1-1.7,0.1h-6.8v8.4h-4V120h10.8c7.2,0,11.5,3.6,11.5,9.6c0,4.3-2.2,7.4-6.1,8.7l6.6,9.3
		H444.8z M444.6,129.7c0-4-2.6-6.2-7.7-6.2h-6.7v12.5h6.7C442,135.9,444.6,133.6,444.6,129.7z"/>
	<path d="M452.7,145.2c0-1.6,1.2-2.7,2.7-2.7c1.4,0,2.6,1.1,2.6,2.7c0,1.6-1.2,2.7-2.6,2.7C453.9,147.9,452.7,146.8,452.7,145.2z"/>
</g>
</svg>
