<svg width="22" height="22" viewBox="0 0 22 22" fill="none" xmlns="http://www.w3.org/2000/svg">
<g clip-path="url(#clip0_213_8199)">
<path d="M11.0013 11.0003C13.0271 11.0003 14.668 9.35949 14.668 7.33366C14.668 5.30783 13.0271 3.66699 11.0013 3.66699C8.97547 3.66699 7.33464 5.30783 7.33464 7.33366C7.33464 9.35949 8.97547 11.0003 11.0013 11.0003ZM11.0013 5.50033C12.0096 5.50033 12.8346 6.32533 12.8346 7.33366C12.8346 8.34199 12.0096 9.16699 11.0013 9.16699C9.99297 9.16699 9.16797 8.34199 9.16797 7.33366C9.16797 6.32533 9.99297 5.50033 11.0013 5.50033ZM11.0013 11.917C8.5538 11.917 3.66797 13.1453 3.66797 15.5837V17.417C3.66797 17.9212 4.08047 18.3337 4.58464 18.3337H17.418C17.9221 18.3337 18.3346 17.9212 18.3346 17.417V15.5837C18.3346 13.1453 13.4488 11.917 11.0013 11.917ZM16.5013 16.5003H5.5013V15.5928C5.68464 14.9328 8.5263 13.7503 11.0013 13.7503C13.4763 13.7503 16.318 14.9328 16.5013 15.5837V16.5003Z" fill="#2E2E2E"/>
</g>
<defs>
<clipPath id="clip0_213_8199">
<rect width="22" height="22" fill="white"/>
</clipPath>
</defs>
</svg>
