<svg width="22" height="22" viewBox="0 0 22 22" fill="none" xmlns="http://www.w3.org/2000/svg">
<g clip-path="url(#clip0_213_8205)">
<path d="M14.2089 12.8329H13.4847L13.2281 12.5854C14.3281 11.3021 14.8964 9.55126 14.5847 7.69043C14.1539 5.1421 12.0272 3.1071 9.46057 2.79543C5.58307 2.31876 2.31974 5.5821 2.79641 9.4596C3.10807 12.0263 5.14307 14.1529 7.69141 14.5838C9.55224 14.8954 11.3031 14.3271 12.5864 13.2271L12.8339 13.4838V14.2079L16.7297 18.1038C17.1056 18.4796 17.7197 18.4796 18.0956 18.1038C18.4714 17.7279 18.4714 17.1138 18.0956 16.7379L14.2089 12.8329ZM8.70891 12.8329C6.42641 12.8329 4.58391 10.9904 4.58391 8.70793C4.58391 6.42543 6.42641 4.58293 8.70891 4.58293C10.9914 4.58293 12.8339 6.42543 12.8339 8.70793C12.8339 10.9904 10.9914 12.8329 8.70891 12.8329Z" fill="#2E2E2E"/>
</g>
<defs>
<clipPath id="clip0_213_8205">
<rect width="22" height="22" fill="white"/>
</clipPath>
</defs>
</svg>
