<svg width="22" height="22" viewBox="0 0 22 22" fill="none" xmlns="http://www.w3.org/2000/svg">
<g clip-path="url(#clip0_446_1676)">
<path d="M6.95482 10.1953L4.33239 4.66634H4.77714H18.196L14.984 10.4892L14.9828 10.4913C14.8437 10.745 14.5717 10.9163 14.2555 10.9163H7.4263H7.03232L7.17473 10.6589L6.95482 10.1953ZM5.5938 18.333C5.5938 17.8704 5.96843 17.4997 6.41797 17.4997C6.87402 17.4997 7.2513 17.877 7.2513 18.333C7.2513 18.7891 6.87402 19.1663 6.41797 19.1663C5.96843 19.1663 5.5938 18.7956 5.5938 18.333ZM14.7605 18.333C14.7605 17.8704 15.1351 17.4997 15.5846 17.4997C16.0407 17.4997 16.418 17.877 16.418 18.333C16.418 18.7891 16.0407 19.1663 15.5846 19.1663C15.1351 19.1663 14.7605 18.7956 14.7605 18.333Z" stroke="#2E2E2E" stroke-width="2"/>
</g>
<defs>
<clipPath id="clip0_446_1676">
<rect width="22" height="22" fill="white"/>
</clipPath>
</defs>
</svg>
